<?xml version="1.0" encoding="UTF-8" standalone="no"?>
<!-- Uploaded to: SVG Repo, www.svgrepo.com, Generator: SVG Repo Mixer Tools -->

<svg
   height="200px"
   width="400px"
   version="1.1"
   id="Layer_1"
   viewBox="0 0 512 512"
   xml:space="preserve"
   sodipodi:docname="pallassoLlorando.svg"
   inkscape:version="1.3 (0e150ed6c4, 2023-07-21)"
   xmlns:inkscape="http://www.inkscape.org/namespaces/inkscape"
   xmlns:sodipodi="http://sodipodi.sourceforge.net/DTD/sodipodi-0.dtd"
   xmlns="http://www.w3.org/2000/svg"
   xmlns:svg="http://www.w3.org/2000/svg"><defs
   id="defs4" /><sodipodi:namedview
   id="namedview4"
   pagecolor="#505050"
   bordercolor="#ffffff"
   borderopacity="1"
   inkscape:showpageshadow="0"
   inkscape:pageopacity="0"
   inkscape:pagecheckerboard="1"
   inkscape:deskcolor="#505050"
   inkscape:zoom="2.51"
   inkscape:cx="210.75697"
   inkscape:cy="87.848606"
   inkscape:window-width="1920"
   inkscape:window-height="1001"
   inkscape:window-x="-9"
   inkscape:window-y="-9"
   inkscape:window-maximized="1"
   inkscape:current-layer="Layer_1" />&#10;<path
   style="fill:#bc2a46"
   d="m 256,147.777 c -53.656,0 -97.308,43.652 -97.308,97.308 0,53.656 43.652,97.308 97.308,97.308 53.656,0 97.308,-43.652 97.308,-97.308 0,-53.656 -43.652,-97.308 -97.308,-97.308 z m 3.05976,89.86443"
   id="path1"
   sodipodi:nodetypes="sssss" />&#10;<path
   style="fill:#39B7B6;"
   d="M149.584,54.218h-33.601V20.616C115.983,9.23,106.753,0,95.367,0S74.751,9.23,74.751,20.616v33.602  H41.149c-11.385,0-20.616,9.23-20.616,20.616s9.23,20.616,20.616,20.616h33.602v33.601c0,11.385,9.23,20.616,20.616,20.616  c11.385,0,20.616-9.23,20.616-20.616V95.45h33.601c11.385,0,20.616-9.23,20.616-20.616S160.971,54.218,149.584,54.218z"
   id="path2" />&#10;<path
   style="fill:#66CBC4;"
   d="M470.577,54.218h-33.601V20.616C436.976,9.23,427.746,0,416.361,0  c-11.385,0-20.616,9.23-20.616,20.616v33.602h-33.602c-11.385,0-20.616,9.23-20.616,20.616s9.23,20.616,20.616,20.616h33.602v33.601  c0,11.385,9.23,20.616,20.616,20.616c11.385,0,20.616-9.23,20.616-20.616V95.45h33.601c11.385,0,20.616-9.23,20.616-20.616  S481.963,54.218,470.577,54.218z"
   id="path3" />&#10;<path
   style="fill:#34b3ef;fill-opacity:1"
   d="m 62.63071,148.4392 c -3.462093,-53.544189 19.47288,-24.68266 -77.419551,62.63071 -39.85964,35.91901 49.261562,145.75422 88.638675,58.55103 22.081781,-48.90155 5.515171,-42.63208 -8.253753,-87.1088 -15.867648,-51.25606 2.244414,46.50077 -2.965371,-34.07294 z"
   id="path1-5"
   sodipodi:nodetypes="sssss" /><path
   style="fill:#0E4151;"
   d="M485.865,349.497c-3.602-10.408-11.042-18.791-20.951-23.602  c-20.449-9.93-45.169-1.373-55.099,19.072c-24.956,51.375-77.988,84.57-135.104,84.57h-37.423  c-57.115,0-110.147-33.196-135.105-84.571c-4.813-9.907-13.195-17.345-23.601-20.947c-10.41-3.604-21.598-2.937-31.501,1.877  c-9.907,4.812-17.346,13.194-20.948,23.601c-3.601,10.408-2.936,21.597,1.877,31.501c19.098,39.32,48.778,72.36,85.828,95.551  C150.888,499.741,193.577,512,237.286,512h37.423c43.711,0,86.398-12.26,123.449-35.451c37.049-23.191,66.729-56.232,85.828-95.55  C488.802,371.092,489.467,359.905,485.865,349.497z"
   id="path4" />&#10;</svg>
